# xmcd
#
# Track frame offsets: 
#        150
#        10372
#        21117
#        31697
#        45581
#        56960
#        66618
#        77358
#        87043
#        99361
#        109913
#        119018
#        127540
#        141636
#        152833
#
# Disc length: 2187 seconds
#
# Revision: 0
# Processed by: cddbd v1.5.2PL0 Copyright (c) Steve Scherf et al.
# Submitted via: ExactAudioCopy v1.3
#
DISCID=c308890f
DTITLE=Various Artist - Simply Country - CD9
DYEAR=2012
DGENRE=Country
TTITLE0=Faron Young - Hello Walls
TTITLE1=Freddy Fender - A Man Can Cry
TTITLE2=George Jones - Treasure Of Love
TTITLE3=Lefty Frizzell - Run 'Em Off
TTITLE4=Johnny Cash - Oh, Lonesome Me
TTITLE5=Charlie Rich - Every Day (And Every Night)
TTITLE6=Roy Drusky - Country Rose
TTITLE7=Loretta Lynn - You Ain't Woman Enough (Live)
TTITLE8=Hank Williams - Your Cheatin' Heart
TTITLE9=Faron Young - A Moment Isn't Very Long
TTITLE10=Jerry Lee Lewis - Jambalaya (On The Bayou)
TTITLE11=Willie Nelson - Slow Down Old World
TTITLE12=Bill Monroe - Blue Moon Of Kentucky
TTITLE13=Boxcar Willie - Wreck Of The Old '97
TTITLE14=Dave Dudley - Cowboy Boots
EXTD=
EXTT0=
EXTT1=
EXTT2=
EXTT3=
EXTT4=
EXTT5=
EXTT6=
EXTT7=
EXTT8=
EXTT9=
EXTT10=
EXTT11=
EXTT12=
EXTT13=
EXTT14=
PLAYORDER=
